<svg aria-hidden="true" style="position:absolute;width:0;height:0" xmlns="http://www.w3.org/2000/svg" overflow="hidden"><defs><symbol id="icon-bentley" viewBox="0 0 100 32"><path d="M50.156 14.596c.62-.08 1.211-.176 1.666-.573.467-.408.673-.999.755-1.614.133-1.03-.134-2.114-1.032-2.639-.578-.338-1.319-.403-2.07-.403-.102.056-.302-.022-.386.068-.112 0-.32-.006-.392.071-.052 0-.104.003-.137.04-.336 0-.782.274-1.02.496-.088.083-.147.202-.255.263 0 .097-.136.301-.211.359a.12.12 0 01-.041.096.226.226 0 01-.068.152.322.322 0 01-.072.208c0 .091-.01.255-.068.319l-.025.527c.005.354.079.702.174 1.019.39 1.313 1.809 1.786 3.18 1.611zm2.232 5.926c1.079-1.185.935-3.77-.625-4.489-.73-.336-1.544-.35-2.465-.35-.113.096-.359.004-.46.111-.086 0-.223.008-.277.068-.069 0-.177.018-.221.068a.479.479 0 00-.308.139c-.167 0-.564.327-.665.468-.088.123-.169.307-.292.4 0 .074-.058.18-.109.223 0 .061-.026.13-.071.167 0 .074-.018.17-.069.22 0 .088-.011.219-.068.276 0 .29-.042.596-.028.901.026.543.2 1.136.501 1.549.213.293.46.524.771.703.235.133.501.189.765.26 1.156.303 2.84.151 3.622-.716z"/><path d="M96.591 3.393c-.284.127-.924.383-1.034.418-.072.026-.581.031-.665.028-.115.003-.909.011-1.241.011-.134.005-2.55.068-3.372.068-.913 0-1.81.021-2.72.021-.204 0-1.243.016-1.303.023h-4.744l-.332.013-.208.013h-2.51c-.191 0-1.46.038-2.026.07-.781.064-1.934.162-1.984.165-.153 0-.459.057-.504-.112-.049-.182.329-.267.448-.289 1.398-.274 2.8-.608 4.382-.805 2.632-.329 3.898-.369 4.328-.495.249-.076.198-.399 0-.424-2.822-.332-9.133.902-10.04 1.089-1.683.362-2.93.452-3.346.455h-3.924c-2.183-.003-3.128.236-3.277.265a5.023 5.023 0 00-1.196.421c-.794.406-1.3.908-.965 1.858.119.205.232.487.347.692.27.535.618 1.195.899 1.718.203.372.329.84.329 1.307l-.112.581c-.008.099-.252.528-.38.452-.013-.009-.035-.034-.065-.067a10.346 10.346 0 00-.491-.66c-.057-.079-.102-.142-.121-.165-.203-.265.385-.627.331-.963-.111-.666-1.093-1.942-1.831-2.55-.433-.356-.834-.828-1.218-1.264-.158-.217-.336-.396-.498-.61a1.312 1.312 0 01-.264-.54c-.112-.463.167-.744.467-.982.178-.142.517-.352.794-.465.745-.306 2.492-.615 3.527-.749.343-.034 1.182-.134 1.81-.146.7 0 1.368.021 2.023.071 1.278.099 2.528.337 3.858.356 1.934.03 3.796-.09 5.674-.18.837-.04 1.719-.095 2.615-.17 1.374-.117 5.563-.065 6.181-.026.305.018 3.078.131 4.48.239.312.023.564.053.766.088.616-.013 1.227.014 1.83-.022 1.127-.071 2.258-.196 3.371-.285l1.68-.155c.213 0 .401 0 .567.085.231.117.911.789.904 1.06-.004.144-.855.409-1.237.553zm-.842 2.493c-.112.099-.408.132-.549.178-.332.105-1.272.566-2.327.566-4.559 0-8.906-.392-13.305-.669-.601-.047-1.204-.097-1.804-.145-.836-.059-1.673-.115-2.51-.172l-.957-.069c-.171-.013-.388-.075-.555-.023-.061.011-.121.02-.181.028a.7.7 0 00-.082.014c-.596 0-.101-.636.202-.683.183-.027.514-.005.697 0 .41.002 1.709-.033 1.927-.042 1.281 0 2.413.005 3.695.005h2.26c.184-.014 3.819-.043 5.397-.068 1.198-.019 2.445.014 3.606-.04.68 0 1.359-.002 2.04-.004.171-.009 2.031-.054 2.185.04.226.136.496.88.261 1.085zM93.478 8.01c-.184.524-.455.745-.985.906-.149.04-.301.08-.453.118-.027.006-.056.009-.085.014l-.082.014-.085.013c-.031.005-.063.008-.096.015-.042.005-.082.007-.126.014l-.151.012-.138.015c-.041.005-.086.008-.127.015-.06.003-.121.006-.18.013-.101.003-.204.009-.305.013-1.672 0-3.234-.222-4.816-.372-1.025-.097-2.037-.275-3.052-.388-1.447-.159-2.876-.396-4.299-.628l-3.538-.555c-.29-.046-.582-.091-.874-.135-.157-.025-.6-.091-.763-.042-.403 0-.353-.348-.145-.558.061-.063.138-.085.214-.12.488 0 1.141.089 1.608.125l3.386.261c3.33.213 6.668.481 10.029.638l2.721.099 1.997.002c.127.006.256.022.34.116.093.107.042.273.002.391zm-3.303 3.2c-.153.102-.328.098-.492.173l-.086.014c-.025.006-.053.009-.081.014-.028.006-.056.009-.084.014l-.085.014-.109.013c-.043.006-.085.009-.126.015-.041.005-.084.008-.124.014a4.874 4.874 0 00-.126.013l-.138.014c-.061.005-.12.008-.181.015-.06.002-.118.007-.181.013a8.443 8.443 0 01-.18.013c-.042.006-.084.009-.124.014-.057.006-.111.009-.166.014l-.237.013c-.043.006-.084.01-.127.014-.458 0-.882-.08-1.317-.135-.844-.109-1.665-.257-2.484-.387a62.629 62.629 0 01-4.426-.882c-1.195-.281-2.378-.529-3.552-.83-.795-.203-1.591-.406-2.385-.611-.285-.074-.787-.14-1.01-.312-.13-.099-.199-.349-.226-.506-.04-.219.15-.301.308-.361.397 0 .66.186 1.014.271.811.141 1.627.277 2.44.417 1.751.292 3.505.581 5.285.809 1.5.192 3.013.46 4.537.603 1.06.102 2.129.232 3.203.316.352.028 1.488-.007 1.697.168.264.218-.234.905-.441 1.044zm-3.04 1.621c-.076.169-.268.276-.396.417-.138.153-.239.343-.418.471-.115.078-.235.105-.357.167l-.084.014c-.053.003-.102.008-.154.013-.07.006-.146.009-.219.013-1.787 0-3.507-.401-5.122-.756-2.222-.488-4.026-1.109-6.135-1.836-.809-.288-3.453-1.067-3.562-1.344-.134-.339.427-.458.65-.547l.49-.215c.177.012.304.082.458.137.162.05.325.098.486.149.763.199 1.527.397 2.29.597 1.641.421 3.295.789 4.979 1.154 1.052.228 2.131.461 3.206.641l2.401.386 1.234.166c.09.025.18.047.24.123.052.07.048.172.015.25zm-4.943 2.66c-.085.035-.169.073-.251.109-.028.006-.055.009-.082.014-.037.006-.076.009-.112.014-.037.006-.075.008-.112.015-.059.003-.118.008-.18.013l-.348.014c-.068.005-.138.008-.208.014-.868 0-1.779.042-2.566-.102-.927-.17-1.784-.586-2.624-.933a29.494 29.494 0 01-2.402-1.13l-1.626-.815c-.34-.18-.683-.359-1.023-.54-.167-.085-.329-.187-.51-.25-.24-.082-.635-.201-.654-.473-.012-.187.645-.417.834-.498.285.009.526.146.776.239l1.694.62c2.193.741 4.394 1.487 6.688 2.059.633.158 1.279.309 1.929.451.297.066 1.053.118 1.232.339.19.24-.263.706-.455.842zm-4.667 1.846c-.073.029-.146.057-.218.089-.052.003-.103.008-.153.012-.862 0-1.73-.095-2.46-.368-.748-.28-1.431-.734-2.103-1.167-1.221-.79-2.388-1.66-3.559-2.535-.126-.091-.892-.444-.953-.679-.053-.212.359-.524.513-.625.03.001.055.004.084.004.032.01.065.019.097.027.379.218.761.437 1.142.654 1.22.67 2.463 1.309 3.728 1.915.922.44 1.85.854 2.801 1.234l.92.335c.178.061.355.122.532.181a.355.355 0 01.161.136c.145.259-.332.665-.534.79zm-4.532 1c-.576 0-1.073-.18-1.585-.31-.33-.085-.685-.162-.978-.32-.365-.194-.646-.545-.967-.83-.865-.759-1.669-1.604-2.523-2.406a1.347 1.347 0 00-.306-.218c-.129-.067-.322-.07-.394-.215a.345.345 0 01-.01-.218c.057-.125.115-.249.171-.377.056-.142.087-.311.176-.434a.475.475 0 01.188-.143 1.634 1.634 0 01.138.003c.028.006.055.008.084.012.505.117.781.587 1.185.889 1.096.819 2.171 1.673 3.306 2.418.466.306.928.615 1.404.909.254.158.57.276.781.508l.041.062a.339.339 0 01.018.039c.105.337-.517.528-.727.632zm-3.955.499c-.534 0-1.321-.273-1.715-.549-.304-.212-.532-.561-.754-.835-.579-.721-1.114-1.477-1.655-2.222a1.824 1.824 0 00-.293-.343c-.127-.106-.308-.141-.37-.308-.118-.312.138-.624.402-.706.353.01.672.16.924.364.191.151.321.346.476.521.168.169.337.337.504.507.805.767 1.606 1.534 2.409 2.301.203.19.714.551.746.827.002.013.002.027.002.038-.01.291-.484.308-.676.404zm-2.457 1.298c-.085.205-.865 1.672-1.442 2.458-1.341 1.82-3.295 3.566-5.22 4.622-.914.502-1.822.881-2.022.964-.228 0-.327-.124-.132-.285.146-.123.922-.472 1.539-.771.985-.513 1.85-1.032 2.735-1.744a14.492 14.492 0 002.776-2.998c.681-.987 1.474-2.448 1.615-2.523.18.017.216.116.15.276zm-3.747-8.488c.203.178.273.469.423.683.184.262.664.818.637 1.115-.023.242-.955.962-1.158.792-.005-.006-.011-.014-.02-.021a7.926 7.926 0 00-.871-2.566c0-.035.009-.068.021-.096.162-.327.899.032.968.094zm5.436-6.729c-.295-.03-.891-.555-1.123-.093-.199.391 1.05.547.994.935-.044.324-.163.377-.451.377-.13.007-.439-.18-.543-.219-.287-.132-.966-.67-1.222-.239-.253.426 1.473 1.005 1.427 1.337-.046.315-.363.563-.603.481-.332-.08-1.393-1.321-1.874-.834-.445.45 1.331 1.238 1.242 1.512-.15.46-.555.597-1.118.131-.294-.244-.757-.697-1.022-.342-.325.438.612.99.695 1.136.206.369-.266.795-.579.725-.289-.039-.715-1.126-1.12-.752-.31.285.448.963.369 1.233-.032.252-.675.583-.973.35-.41-.272.557-1.684-.392-3.015-.459-.566-.834-1.444-.859-1.599-.036-.271-.016-.736.158-.968.665-.889 3.684-.829 4.973-.889.864-.041 1.35.072 2.236.072.138.035.311.038.338.206.031.209-.129.406-.552.453zm-1.792 4.388c-.076-.062-.094-.167-.08-.271.052-.404.615-.592.921-.609.272 0 .944.408 1.111.491l.748.351c.226.103.556.196.712.411.176.241-.069.551-.272.676-.115.069-.282.184-.752.199-.349 0-.552-.2-.816-.366-.347-.221-1.434-.767-1.571-.882zm-.81 3.766c-.315.16-.729-.023-1.008-.174-.402-.216-.635-.764-.951-1.08-.14-.136-.508-.416-.513-.476-.045-.313.224-.411.459-.468.237 0 .513-.029.707.059.203.094.355.328.517.489.335.334.727.62 1.014.992a.46.46 0 01-.227.658zm-.768-2.635c-.083-.128-.064-.339.025-.468.162-.242.564-.131.824-.2a.677.677 0 01.26.05c.181.136.34.238.52.374.199.134.422.302.621.435.233.162.496.286.71.479.075.068.14.155.154.252.058.368-.423.562-.656.567-.276 0-.564.007-.785-.106-.167-.085-1.572-1.232-1.672-1.383zm-1.538 9.106c-.4.212-1.35-.274-1.461-.403a.124.124 0 01-.035-.077 8.029 8.029 0 00.782-2.144.345.345 0 01.19-.098c.298-.038.92 2.528.526 2.723zm-.032-2.776c-.099-.169-.451-.685-.514-.869a.465.465 0 01-.023-.082 8.125 8.125 0 00-.008-1.027c.021-.056.051-.094.091-.099.256 0 .693.099.87.255.147.127.221.32.326.478l.541.76 1.255 1.681.575.739c.106.182.078.316-.082.442l-.097.013c-.584 0-1.491-.216-1.888-.565-.199-.176-.305-.384-.431-.594l-.614-1.13zm6.888-9.27c.303.103 1.002.356 1.125.516.075.097.122.241.052.37-.261.497-.497.416-1.023.428-.447 0-.636-.187-.991-.36-.191-.086-.379-.175-.57-.263-.169-.074-.157-.095-.328-.169-.138-.047-.459-.154-.558-.269-.253-.284.335-.603.594-.687.167-.045 1.106.233 1.701.435zm-.715-3.08c.029-.453 1.234-.37 1.883-.41.631-.048.844-.111 1.411-.088.391.017.159.933-.058 1.126-.18.16-1.121-.186-1.603-.229-.326-.029-1.662.066-1.632-.399zm1.43 1.202c.691.127 1.165.26 1.279.324.246.139.281.349.183.663-.088.271-.382.346-.72.314a7.399 7.399 0 01-1.132-.189l-.982-.253c-.204-.053-.455-.089-.618-.218-.156-.125-.133-.371-.067-.552a.507.507 0 01.489-.336c.201.013.892.123 1.567.246zM57.17 26.927c-.144-.148-1.593-2.3-1.66-2.393-.056-.074-.04-.2.011-.288 2.641-.994 4.777-2.637 6.038-4.654.212-.059.585.26.748.34.282.138.638.278.986.182.364-.1.513-.553.798-.683.155-.062 1.27.349 1.29.622-.011.225-.694 1.178-1.459 2.2-1.341 1.794-3.005 3.008-4.862 4.04-.4.221-.824.423-1.247.597l-.358.14c-.111 0-.213-.029-.283-.104zm-.507 2.288c-.231.108-.824-.107-.962-.264-.181-.207-.252-.506-.365-.78a136.442 136.442 0 01-1.14-3.044.694.694 0 01.014-.457c.232-.065.462-.132.687-.207.101.062.181.15.245.215.178.19 1.144 2.094 1.565 2.826.135.242.334.624.376.911.034.252-.141.671-.419.8zm-2.173.572c-.245.081-.805-.204-.922-.378-.155-.227-.191-.533-.27-.819a141.85 141.85 0 01-.759-3.158.722.722 0 01.044-.401c.26-.043.513-.094.765-.149.079.069.138.154.185.217.155.211.879 2.217 1.207 2.996.107.256.255.66.26.95.006.255-.219.651-.51.742zm-1.819-.228c-.038.245-.322.587-.618.627-.245.036-.737-.334-.821-.519-.108-.245-.09-.544-.117-.83-.065-.862-.191-2.938-.191-3.161 0-.131.044-.334.181-.459.184-.015.368-.032.55-.053.147.087.224.252.279.363.111.227.465 2.275.65 3.075.057.266.13.677.087.957zm-2.242.197c-.069.239-.391.544-.69.548-.249.003-.693-.421-.751-.615-.08-.256-.022-.552-.015-.84.042-.862.167-2.938.195-3.157a.658.658 0 01.217-.421c.103.002.204.002.303.002.091 0 .181 0 .27-.002.134.107.188.277.23.392.084.241.185 2.318.268 3.135.025.268.049.687-.029.958zm-1.827-7.261c-2.01-.16-4.27-.806-5.773-1.976a2.144 2.144 0 01-.494-.536c-.04-.066-.03-.169-.087-.223.005-.01.011-.019.013-.031.099-.145.16-.319.28-.455.09-.103.474-.471.501-.567.006-.193.009-.385.012-.579v-4.656l.003-.678c.012-.168.055-.349.034-.539-.015-.124-.184-.238-.283-.297-.2-.118-.599-.486-.675-.7-.023-.066-.002-.155.019-.214.054-.145.194-.249.274-.381.009-.013.016-.022.022-.034.222-.273.542-.49.821-.681a9.845 9.845 0 013.743-1.527c.465-.088.946-.147 1.427-.211.11-.013.268.023.361-.031l1.928.003c1.327.062 2.601.353 3.697.898.39.194.806.405 1.125.734.101.103.215.182.318.291.45.48.716 1.026.836 1.679.019.109.079.336-.01.431 0 .156.031.421-.068.524 0 .081-.016.183-.072.235a.253.253 0 01-.069.183c0 .356-.677 1.019-.958 1.255-.134.115-.422.228-.51.359-.115 0-.236.12-.324.18 0 .029.056.031.078.04 1.192.508 2.262 1.828 2.282 3.197.002.144.045.451-.044.551 0 .123.013.308-.069.387 0 .085-.013.193-.069.248 0 .169-.1.299-.171.434-.355.697-.958 1.232-1.629 1.626l-.578.282c-.077.035-.176.046-.23.121-.109 0-.317.058-.389.136-.072 0-.203.018-.248.068-.072 0-.191.022-.236.071-.075 0-.202.015-.249.068-.1 0-.256 0-.321.068-.065 0-.14.003-.18.044-.103 0-.323 0-.389.071-.112 0-.464.005-.528.068-.138 0-.638-.001-.706.068-.805 0-1.621.059-2.416-.003zm-.28 6.283c-.02.268-.061.686-.18.942-.107.225-.472.476-.767.433-.249-.034-.617-.525-.645-.725-.038-.267.064-.548.115-.832.177-.845.629-2.877.69-3.089a.69.69 0 01.22-.339c.21.022.423.042.636.059.108.123.134.297.155.413.046.252-.18 2.316-.224 3.138zm-2.152-.195c-.066.263-.179.666-.341.899-.144.201-.547.386-.829.293-.237-.077-.518-.622-.511-.825.009-.268.158-.528.262-.799a127.8 127.8 0 011.215-2.923.74.74 0 01.282-.301c.183.041.373.075.563.107.133.149.127.362.129.5 0 .255-.582 2.25-.771 3.05zm-2.586.33c-.174.179-.603.296-.867.161-.221-.113-.411-.695-.373-.896.051-.262.239-.497.383-.747.442-.742 1.532-2.515 1.66-2.698a.708.708 0 01.252-.22c.206.065.416.125.625.182.094.164.055.361.036.491-.037.251-.926 2.133-1.239 2.894-.106.249-.282.63-.477.833zm-1.533-1.87c-.256.09-1.24-.538-1.594-.73-1.868-1.007-3.634-2.356-5.001-4.11-.432-.552-1.654-1.968-1.639-2.552.012-.412 1.362-.563 1.578-.554.368.035.484.523.918.627.275.066.593-.082.81-.206.14-.081.335-.24.521-.22 1.246 2.176 3.497 3.948 6.312 4.982a.52.52 0 01.016.034.3.3 0 01-.047.245c-.148.169-1.581 2.415-1.873 2.485zm-.364 1.087c-.33.03-1.785-.724-2.052-.857-1.749-.896-3.374-2.293-4.72-3.867-.356-.415-.643-.869-.943-1.312-.349-.514-1.138-1.795-1.198-1.992-.034-.112-.077-.331.046-.374.112-.066.214.012.287.131.14.226.692 1.323 1.109 1.922.441.637.766 1.189 1.253 1.721a17.522 17.522 0 003.475 2.937c.535.344 1.097.669 1.667.937l.993.465c.068.043.141.093.163.176a.088.088 0 01-.08.112zm-9.224-9.669c.002-.372 2.516-2.832 2.767-3.209.336-.464.774-.847 1.181-.785a.278.278 0 01.207.091c-.03.268-.045.541-.045.815l.004.126-.011.028c-.115.411-.157.316-.436.854-.423.814-.885 1.978-1.158 2.103-.397.183-1.003.16-1.44.27-.625.158-1.07-.004-1.07-.294zm-2.992-.04c-.282 0-1.051-.116-.883-.58.115-.238.641-.573.872-.732 2.694-1.878 3.824-3.276 4.021-3.251.214.033.524.095.742.125.283.036.786-.13.946.111.013.027-.019.335-.061.395-.094.133-3.122 3.165-3.433 3.347-.678.392-2.139.579-2.204.584zm-1.397-1.336c-.932.554-3.082.761-3.471.676-.261-.057-.785-.482-.615-.757.102-.168 7.198-4.041 7.508-4.128.293-.093 1.387.036 1.514.284.112.218-.892.735-1.2.998-.253.21-3.465 2.725-3.737 2.928zm-4.472-.947c-.886.387-2.244.173-2.927.142-.293-.014-.584-.008-.835-.098-.16-.06-.291-.177-.429-.277-.113-.084-.248-.21-.221-.37a.285.285 0 01.159-.203c.267-.148.625-.196.925-.28.48-.143.96-.289 1.439-.434 1.805-.6 3.61-1.221 5.34-1.955.617-.257 2.167-1.149 2.598-1.168.488 0 1.372-.02 1.413.527.026.347-1.858 1.223-2.287 1.463-.91.491-4.358 2.3-5.174 2.654zm-9.03-1.967c-.109-.166-.491-.778-.362-.893.2-.169.807-.129 1.094-.171.936-.137 1.854-.261 2.761-.453 3.144-.666 9.778-2.716 10.063-2.837l.328-.091c.263 0 .52.039.582.303.024.104.069.679-.112.91-.176.224-8.792 3.229-9.377 3.4-1.447.381-4.7.244-4.978-.167zm-1.122-1.782c-.723 0-2.59-.377-2.815-.544-.183-.138-.274-.392-.366-.584-.213-.446.084-.721 1.761-.641.917-.073 1.81-.176 2.706-.275 1.383-.154 6.996-.99 8.422-1.25l2.706-.471c.416-.075 1.38-.356 1.542-.156.186.231.308.684.159.784-.194.128-7.757 2.156-8.75 2.398-.638.157-4.495.768-5.364.739zM8.104 9.342c-.276-.076-.66-.136-.871-.339-.113-.108-.243-.697-.126-.796.227-.192 2.413-.169 2.58-.182.901-.013 11.242-.654 11.835-.702 1.107-.07 4.148-.362 4.564-.404.129 0 .25.003.355.049.141.064.706.512.719.658.007.066-.034.095-.076.136-.294 0-16.462 2.054-16.523 2.059-.932 0-1.654-.255-2.457-.48zM6.871 7.177c-.315-.067-1.538-.636-1.861-.782-.451-.233-.592-.659-.568-.845.031-.254.132-.369.362-.455.423 0 17.17.24 18.734.24.169-.001 2.439-.207 2.647-.129.099.04.276.151.293.264.059.392-.617.579-.866.692-.029.005-18.45 1.077-18.741 1.015zm30.528 1.699c-.166.698-.068 1.317-.233 1.719-.149.252-.689.183-.811-.156-.083-.449.749-1.081.3-1.306-.429-.213-.649.586-.86.765-.084.073-.15.14-.273.14-.347 0-.661-.173-.449-.552.081-.149.233-.29.369-.41.16-.14.397-.362.523-.531a.55.55 0 00.059-.505c-.047-.114-.195-.134-.314-.179-.448-.17-1.207 1.115-1.477 1.235-.252.121-.595.046-.684-.52-.044-.279 1.254-1.212 1.37-1.323.107-.1.15-.271.105-.416-.076-.255-.326-.311-.611-.238-.207.054-.357.178-.564.404-.557.608-1.388 1.306-1.717.577-.041-.087.066-.44.117-.506.182-.225 1.688-.91 1.358-1.382-.372-.536-1.289.277-1.583.415-.108.038-.699.611-.999-.014-.233-.49 1.225-.732.943-1.135-.249-.357-.77.208-1.196.201-.362-.009-.394-.348-.361-.561.026-.173.176-.211.35-.211.907 0 1.791.016 2.681.06 1.324.061 2.559.096 3.713.479.391.13.813.305 1.126.589.19.171.368.402.331.681l-.012.055c-.063.266-.231.44-.37.663-.217.377-.669 1.334-.83 1.959zm-3.242 3.084l.368-.395c.168-.18.431-.519.644-.642.201-.115.913-.001.997.153.188.341-.094.468-.286.637-.093.081-.464.6-.575.766-.094.149-.188.321-.328.438-.141.12-.294.134-.456.209-.201.059-.506-.046-.689-.173-.442-.309.076-.742.324-.993zm-2.502-.594c.072-.17.419-.472.56-.589.296-.239 1.098-1.054 1.373-1.054.429 0 1.362.095.993.745-.076.134-1.352 1.272-1.55 1.421-.272.202-.884.297-1.084.149-.217-.16-.427-.338-.291-.671zm-1.934-1.612c.132-.172 1.976-1.315 2.246-1.328.311-.007 1.263.302 1.002.754-.102.174-.467.266-.625.377-.312.251-.549.429-.86.68-.152.117-.282.254-.444.344l-.249.097c-.304 0-.756-.006-.958-.209-.087-.087-.119-.204-.154-.316-.045-.142-.047-.283.043-.401zm-1.531-2.01c.177-.194.485-.25.725-.329.581-.195 1.13-.458 1.747-.577.368-.062 1.188.538.756.981-.127.131-.327.156-.482.239l-1.359.73c-.1.04-.337.088-.491.093-.276 0-.686-.164-.842-.34-.078-.086-.127-.252-.152-.362a.458.458 0 01.098-.434zm-1.434-2.732c-.196-.214-.448-.839-.055-.856.564-.025.963.014 1.591.062.652.04 1.621-.105 1.65.36.019.321-1.348.317-1.672.347-.482.043-1.254.374-1.514.088zm.134 1.251a.465.465 0 01.179-.28c.213-.148.558-.162.82-.207.67-.124 1.334-.221 1.977-.419.194-.046.401.048.534.203.128.153.235.351.073.53-.148.163-.416.197-.622.256-.593.191-1.147.393-1.784.547-.402.069-1.021-.199-1.119-.315-.066-.077-.081-.206-.057-.315zm10.507 12.57c-.086.158-.95.485-1.416.093-.263-.324.356-2.589.655-2.552.119.858.376 1.681.762 2.459zm-.707-4.785c-.168.097-.591-.148-1.025-.329-.587-.249.288-.745.592-1.192.164-.242.437-.882.647-1.048.217-.054.65-.219.73-.007a7.986 7.986 0 00-.944 2.576zM2.551 3.335c-.164-.072-.649-.447-.619-.521.093-.238.619-1.133 1.032-1.166.875.082 1.952.198 2.854.238 0 0 6.458-.071 6.649-.086.973-.076 3.285-.176 4.284-.193.554-.009 1.49-.045 2.017-.021 1.789 0 3.371.15 5.099.233.887.04 1.747.059 2.634.099.895.042 1.812.11 2.722.11 1.631 0 3.169-.105 4.757-.179l1.221-.003c.762-.013 1.603-.045 2.373.029.48.045.964.048 1.428.102.631.073 1.722.201 2.18.407.423.187.731.472.893.651.312.342.776.876.516 1.279-.107.202-.404.497-.559.676-.207.231-1.823 1.568-2.225 2.137-.364.507-.47.889-.695 1.287-.307.512.03.893-.082 1.192-.334.353-.641.722-.914 1.109-.06.033-.113.043-.155.013-.277-.193-.223-.607-.156-1.143.029-.404.355-1.239.474-1.455.228-.429.964-1.328 1.023-1.491.471-1.316-.842-2.13-1.839-2.455-.331-.108-.663-.231-1.011-.294-1.286-.232-2.663-.206-4.05-.249-.953-.029-1.958-.067-2.929-.067l-2.096-.005c-.669-.053-1.346-.091-1.97-.239-1.07-.253-1.966-.485-3.036-.72-.91-.199-1.892-.372-2.864-.433-.662-.041-1.814-.113-2.5-.113-.505 0-4.249-.039-4.802.115-.192.038-.161.397-.032.428.719.205 3.39.264 5.16.203 1.04.05 2.203.179 3.186.32 1.273.18 2.448.411 3.628.783l1.26.328c.208.064.48.203.195.397-.779 0-1.5-.151-2.29-.163-1.989 0-4.858-.06-6.852-.06-.208-.013-9.878-.116-11.032-.182-1.284-.074-2.442-.687-2.875-.899zm54.064 1.286c.163.292.381.476.816.985.88 1.028 2.148 1.892 2.722 2.849.075.122.194.327.184.472-.01.125-.224.463-.499.232-.757-.627-1.47-1.206-2.267-1.672-1.998-1.169-4.294-1.817-6.783-1.924-2.816-.121-4.999.333-5.429.468-1.733.536-3.166 1.014-4.694 2.205-.108.085-.558.367-.75.112-.074-.101-.02-.429.035-.501.726-.973 1.777-1.417 2.601-2.288.216-.231.839-.766.859-1.565.016-.652-.628-.634-.328-1.103.129-.197 3.598-1.108 6.832-1.108 3.616 0 6.803 1.136 6.883 1.466.103.415-.718.466-.181 1.371zM42.423 1.806c.432-.214 3.636-1.237 7.424-1.237 4.161 0 7.776 1.343 7.987 1.514.286.232.026.664-.297.6-.319-.063-3.599-1.45-7.646-1.45s-6.873 1.07-7.123 1.216c-.296.171-.577-.064-.577-.064s-.196-.365.232-.578zm57.528.848s-1.273-1.52-1.47-1.561c-.453-.094-4.52.493-7.15.493-2.632 0-7.374-.398-9.326-.398-1.954 0-8.052.438-10.921.438-2.87 0-3.983-.438-6.096-.438-1.313 0-4.328.083-6.185.748C55.789.476 53.048 0 49.796 0a22.62 22.62 0 00-8.827 1.827c-2.911-1.009-9.886-.41-11.41-.376-1.745.04-8.967-.395-10.672-.395s-5.232.055-7.891.237c-4.049.277-8.627-.116-9.18-.253a.57.57 0 00-.467.096C1.23 1.293.001 2.676.001 2.676l.12.397 2.895 1.462-.396 1.898 2.819 1.266s0 1.578.156 1.776c.159.2 2.977.91 2.977.91s.281 1.846.476 2.015c.33.293 3.295.595 3.295.595s.911 1.659 1.307 1.817c.397.158 3.572.634 4.166.474 0 0 .263 1.382.825 1.631.601.265 4.055.15 4.055.15s.429 1.362 1.116 1.575c.643.198 3.645-.589 3.645-.589s.439 1.009.875 1.186c.665.27 3.09-.587 3.09-.587 1.247 5.119 5.401 8.741 10.292 10.635l.684 1.37 1.608-.607.84 1.285 1.468-.795 1 1.208 1.319-.951 1.163 1.075 1.157-1.107 1.322.964.995-1.206 1.471.797.843-1.274 1.615.617.666-1.371c4.535-1.753 8.733-5.403 10.097-10.032.424.188 1.23.463 1.895.491 0 0 .758-.273 1.066-1.229 0 0 2.632.819 3.112.672 0 0 .442-.023.85-1.364.269.123.493.058.894.144 2.049.444 2.942.204 2.942.204s.459-.078.821-1.796c.183.027.313.049.451.041 0 0 3.042.087 3.569-.176 0 0 .481-.121.653-1.843 1.254.187 2.382.269 3.296.165 0 0 1.023-.35 1.416-2.354.69-.043 2.725-.178 2.978-.477 0 0 .501-.229.501-2.03.796-.052 2.09-.218 2.556-.712 0 0 .493-.569.279-1.941 1.879-.392 2.531-1.002 2.531-1.002-.013-.663-.598-1.882-.598-1.882s2.103-.808 2.614-1.218l.165-.303z"/></symbol><symbol id="icon-Close" viewBox="0 0 32 32"><path d="M16 13.63L2.37 0 0 2.37 13.63 16 0 29.63 2.37 32 16 18.37 29.63 32 32 29.63 18.37 16 32 2.37 29.63 0 16 13.63z"/></symbol><symbol id="icon-Fall-Arrow" viewBox="0 0 48 32"><path d="M24 19.2L6 0 0 6.4 24 32 48 6.4 42 0 24 19.2z"/></symbol><symbol id="icon-FB" viewBox="0 0 32 32"><path fill="none" stroke="var(--color1, #fff)" stroke-width="1.6" d="M31.2 16c0 8.395-6.805 15.2-15.2 15.2S.8 24.395.8 16 7.605.8 16 .8 31.2 7.605 31.2 16z"/><path fill="var(--color1, #fff)" d="M20.8 12.617h-3.269v-1.993c0-.749.533-.923.909-.923h2.307v-3.29L17.569 6.4c-3.527 0-4.33 2.454-4.33 4.024v2.193H11.2v3.39h2.039v9.594h4.292v-9.594h2.894l.374-3.39z"/></symbol><symbol id="icon-Inst" viewBox="0 0 32 32"><path fill="none" stroke="var(--color1, #fff)" stroke-width="1.6" d="M31.2 16c0 8.395-6.805 15.2-15.2 15.2S.8 24.395.8 16 7.605.8 16 .8 31.2 7.605 31.2 16z"/><path fill="var(--color1, #fff)" d="M21.1 9.8a1.1 1.1 0 11-.001 2.201A1.1 1.1 0 0121.1 9.8zm-5.1 3c-1.765 0-3.2 1.435-3.2 3.2s1.435 3.2 3.2 3.2c1.765 0 3.2-1.435 3.2-3.2s-1.435-3.2-3.2-3.2zm0 8c-2.646 0-4.8-2.153-4.8-4.8s2.154-4.8 4.8-4.8 4.8 2.153 4.8 4.8-2.154 4.8-4.8 4.8zM11.6 8A3.604 3.604 0 008 11.6v8.8c0 1.985 1.615 3.6 3.6 3.6h8.8c1.985 0 3.6-1.615 3.6-3.6v-8.8C24 9.615 22.385 8 20.4 8h-8.8zm8.8 17.6h-8.8a5.206 5.206 0 01-5.2-5.2v-8.8c0-2.868 2.333-5.2 5.2-5.2h8.8c2.867 0 5.2 2.332 5.2 5.2v8.8c0 2.868-2.333 5.2-5.2 5.2z"/></symbol><symbol id="icon-Search" viewBox="0 0 31 32"><path d="M30.968 11.815C30.968 5.29 25.653 0 19.097 0S7.226 5.29 7.226 11.815c0 2.364.698 4.566 1.899 6.413L.026 27.327l3.65 3.65 9.136-9.136a11.86 11.86 0 006.285 1.79c6.556 0 11.871-5.29 11.871-11.815zm-5.162 0c0 3.688-3.004 6.678-6.71 6.678s-6.71-2.99-6.71-6.678c0-3.688 3.004-6.678 6.71-6.678s6.71 2.99 6.71 6.678z"/></symbol><symbol id="icon-Winner-Logo" viewBox="0 0 104 32"><path fill="var(--color2, #0067b3)" d="M66.844 7.681v13.065h-6.382l-5.647-8.942v8.942h-4.318V7.681h5.972l6.059 8.916V7.681h4.316zm6.088 10.238v-2.186h6.145v-2.931h-6.145V10.53h6.991V7.68H69.071v13.065h10.868v-2.827h-7.007zm17.572-2.99c2.557.062 2.943-2.764 2.943-4.097 0-1.577-.928-3.152-2.654-3.152h-8.738v13.066h3.918l.019-10.26s3.717-.532 3.84 1.037c.221 2.904-3.17 1.99-3.17 1.99v1.509l11.979 14.96h4.51L90.503 14.929zm-65.511 5.818h4.702V7.681h-4.702v13.066zM48.268 7.681v13.065h-6.381l-5.651-8.905v8.905H31.92V7.681h5.968l6.062 8.951V7.681h4.317zM0 .113l5.248 20.633h6.909l.257-11.934 3.073 11.934h7.279V4.528h-4.127v11.219L15.101 4.528H8.32l-.128 11.095L4.097.113H0z"/><path fill="var(--color3, #000)" opacity=".7" d="M25.406 25.054h1.575c.718 0 1.239.101 1.563.304s.486.525.486.968c0 .3-.071.547-.213.739s-.331.308-.566.347v.034c.321.071.552.204.694.399s.213.454.213.777c0 .458-.167.816-.5 1.073s-.787.385-1.359.385h-1.894v-5.026zm1.074 1.991h.623c.291 0 .501-.045.632-.134s.196-.237.196-.444c0-.192-.071-.331-.213-.414s-.366-.125-.673-.125h-.564v1.117zm0 .845v1.31h.699c.295 0 .514-.056.654-.168s.211-.284.211-.516c0-.417-.3-.626-.9-.626h-.665zm3.562-2.647c0-.341.192-.512.575-.512s.575.171.575.512c0 .163-.048.289-.144.38s-.239.136-.431.136c-.383 0-.575-.172-.575-.516zm1.102 4.837h-1.056v-3.843h1.056v3.843zm2.163-3.843v1.478h1.475v-1.478h1.056v3.843h-1.056v-1.585h-1.475v1.585h-1.056v-3.843h1.056zm4.695 0v1.478h1.475v-1.478h1.056v3.843h-1.056v-1.585h-1.475v1.585h-1.056v-3.843h1.056zm5.242.674c-.224 0-.399.07-.526.211s-.2.341-.218.6h1.482c-.005-.259-.073-.459-.204-.6s-.309-.211-.533-.211zm.149 3.238c-.623 0-1.11-.171-1.461-.512s-.526-.825-.526-1.451c0-.644.162-1.142.486-1.494s.773-.528 1.345-.528c.547 0 .973.155 1.278.464s.457.737.457 1.282v.509h-2.496c.011.298.1.53.267.698s.399.251.699.251a2.924 2.924 0 001.312-.302v.811c-.185.092-.382.16-.592.205s-.466.067-.769.067zm4.563 0c-.455 0-.811-.164-1.07-.491h-.055a8.8 8.8 0 01.055.557v1.557H45.83v-5.534h.859l.149.498h.049c.247-.38.613-.571 1.097-.571.457 0 .815.175 1.073.526s.388.838.388 1.461c0 .41-.061.767-.182 1.069s-.294.533-.518.691a1.334 1.334 0 01-.789.237zm-.311-3.146c-.261 0-.451.08-.571.239s-.182.422-.187.789v.113c0 .413.062.708.185.887s.319.268.587.268c.473 0 .71-.387.71-1.162 0-.378-.058-.662-.175-.851s-.299-.284-.549-.284zm9.539 3.077l-.367-1.196h-1.845l-.367 1.196h-1.156l1.787-5.046h1.312l1.793 5.046h-1.156zm-.624-2.09c-.339-1.084-.53-1.697-.573-1.839s-.073-.254-.092-.337a67.228 67.228 0 01-.654 2.176h1.319zm5.907-.746c0 .206-.065.382-.196.528s-.323.239-.577.28v.027c.275.032.492.125.653.28s.241.345.241.572c0 .374-.148.658-.443.854s-.718.294-1.267.294h-1.984v-3.843h1.984c.531 0 .929.085 1.193.256s.396.421.396.751zm-.973 1.633c0-.151-.059-.261-.177-.328s-.294-.101-.53-.101h-.838v.907h.859c.224 0 .394-.042.511-.125s.175-.201.175-.352zm-.097-1.55c0-.234-.187-.351-.561-.351h-.886v.76h.765c.224 0 .394-.032.509-.096s.173-.168.173-.313zm5.232-1.09v.787h-1.267v3.056h-1.056v-3.056h-1.271v-.787h3.594zm1.561 1.915c0 .38.063.668.189.863s.331.292.615.292c.282 0 .484-.097.608-.291s.185-.482.185-.865c0-.38-.062-.666-.187-.856s-.329-.285-.613-.285c-.282 0-.485.095-.609.284s-.187.475-.187.858zm2.677 0c0 .626-.166 1.115-.499 1.468s-.795.529-1.388.529c-.372 0-.699-.081-.983-.242s-.502-.394-.654-.696a2.33 2.33 0 01-.228-1.059c0-.628.165-1.116.495-1.464s.794-.522 1.392-.522c.372 0 .699.08.983.241s.502.391.654.691c.152.3.228.652.228 1.055zm5.751 1.928h-.987v-3.029l-.055.213a9.693 9.693 0 01-.336 1.097l-.686 1.719h-.751l-.696-1.733a9.088 9.088 0 01-.319-1.062l-.066-.234v3.029h-.983v-3.843h1.454l.665 1.64c.069.177.133.379.192.608s.099.425.119.588c.076-.344.136-.591.178-.741s.089-.288.14-.414c.051-.126.28-.686.689-1.681h1.44v3.843zm1.949-1.928c0 .38.063.668.189.863s.331.292.615.292c.282 0 .484-.097.608-.291s.185-.482.185-.865c0-.38-.062-.666-.187-.856s-.329-.285-.613-.285c-.282 0-.485.095-.609.284s-.187.475-.187.858zm2.676 0c0 .626-.166 1.115-.499 1.468s-.795.529-1.388.529c-.372 0-.699-.081-.983-.242s-.502-.394-.654-.696a2.33 2.33 0 01-.228-1.059c0-.628.165-1.116.495-1.464s.794-.522 1.392-.522c.372 0 .699.08.983.241s.502.391.654.691c.152.3.228.652.228 1.055zm4.075-1.915v.787h-1.267v3.056h-1.056v-3.056h-1.271v-.787h3.594zm.675-.994c0-.341.192-.512.575-.512s.574.171.574.512c0 .163-.048.289-.144.38s-.24.136-.431.136c-.384 0-.575-.172-.575-.516zm1.101 4.837h-1.056v-3.843h1.056v3.843zm4.681-2.836c0 .206-.065.382-.195.528s-.323.239-.576.28v.027c.274.032.492.125.652.28s.241.345.241.572c0 .374-.148.658-.444.854s-.718.294-1.267.294h-1.984v-3.843h1.984c.531 0 .929.085 1.193.256s.396.421.396.751zm-.972 1.633c0-.151-.06-.261-.177-.328s-.294-.101-.529-.101h-.838v.907h.859c.224 0 .394-.042.51-.125s.176-.201.176-.352zm-.098-1.55c0-.234-.187-.351-.56-.351h-.886v.76h.765c.224 0 .394-.032.509-.096s.173-.168.173-.313z"/></symbol></defs></svg>